<svg width="480" height="480" viewBox="0 0 480 480" fill="none" xmlns="http://www.w3.org/2000/svg">
<path d="M42.3573 25.4333C42.6617 26.5545 42.3824 27.487 41.5193 28.2308C40.6408 28.7471 39.5272 29.1652 38.1786 29.4851C37.0573 29.7896 35.8069 29.8744 34.4274 29.7396C33.0479 29.6047 32.0018 29.3331 31.2889 28.9247C30.2716 27.395 29.6261 26.2968 29.3525 25.6302C29.2908 24.7209 30.495 23.954 32.9649 23.3297C34.7528 22.7516 36.5638 22.5146 38.398 22.6186C40.4595 22.7071 41.7792 23.6454 42.3573 25.4333ZM25.2141 25.2258C25.6996 25.6496 26.0792 26.1948 26.3528 26.8614C26.6264 27.5281 26.559 28.2178 26.1506 28.9307C24.4089 30.1907 22.5228 31.0038 20.4921 31.37C18.6734 31.4933 17.2342 32.1619 16.1746 33.3758C15.0996 34.3622 14.3887 35.6666 14.042 37.2888C13.4679 38.9265 13.0152 40.6701 12.6839 42.5197C12.7147 42.9744 12.6396 43.5504 12.4585 44.2479C12.0501 44.9607 11.869 45.6582 11.9153 46.3402C11.5994 48.4171 11.6322 50.5846 12.0138 52.8426C12.3799 54.8733 11.9349 56.7306 10.6788 58.4145C9.28392 58.0523 8.54792 57.3029 8.47081 56.1662C8.39371 55.0295 8.08926 53.9082 7.55747 52.8023C7.26845 51.9083 6.87346 51.1358 6.37251 50.4846C5.87156 49.8334 5.47658 49.0608 5.18755 48.1669C3.8041 44.6065 3.45912 41.2041 4.15259 37.9596C4.61872 34.7306 5.90369 31.7886 8.00748 29.1336C10.4466 28.0546 12.9011 27.2029 15.371 26.5786C18.0528 25.7115 21.3339 25.2606 25.2141 25.2258ZM274.722 47.0131C274.359 48.4079 273.876 49.6969 273.271 50.8799C272.651 51.8355 271.924 52.9125 271.092 54.1109C270.244 55.0819 269.526 56.2726 268.936 57.6829C268.331 58.8659 268.083 60.2531 268.191 61.8445C266.495 63.7866 264.397 64.8425 261.897 65.0121C259.396 65.1817 256.789 65.4728 254.076 65.8851C252.94 65.9623 251.818 66.2667 250.713 66.7985C249.819 67.0875 248.811 67.3843 247.69 67.6887C243.143 67.9971 238.475 68.1996 233.685 68.2961C228.895 68.3926 224.121 68.7164 219.362 69.2676C217.59 70.073 215.453 70.5605 212.953 70.7301C210.664 70.657 208.739 70.9018 207.178 71.4644C206.47 74.4815 206.45 77.5661 207.121 80.718C207.776 83.6426 207.628 86.5075 206.676 89.3127C206.283 90.2529 205.777 91.2009 205.156 92.1565C204.52 92.8848 204.006 93.719 203.613 94.6592C202.419 97.2525 201.255 100.301 200.122 103.803C198.99 107.306 198.895 110.966 199.84 114.785C200.418 116.573 200.996 118.361 201.574 120.149C202.379 121.921 203.404 123.565 204.649 125.079C206.575 126.547 207.676 127.614 207.949 128.281C208.207 128.72 208.466 129.159 208.724 129.599C209.483 130.689 210.136 131.901 210.683 133.234C211.442 134.325 211.997 135.771 212.348 137.575C212.699 139.378 212.944 141.303 213.082 143.349C213.448 145.379 213.709 147.532 213.863 149.805C214.183 151.154 214.397 152.624 214.505 154.215C214.597 155.579 214.682 156.829 214.759 157.966C214.717 160.71 214.597 162.316 214.401 162.787C214.204 163.257 214.008 163.727 213.811 164.197C213.615 164.667 213.547 165.357 213.609 166.266C213.655 166.948 213.58 167.524 213.384 167.994C213.022 169.389 212.69 171.239 212.39 173.543C212.089 175.847 212.122 178.015 212.488 180.045C212.565 181.182 212.65 182.432 212.743 183.797C213.047 184.918 213.465 186.031 213.997 187.137C214.271 187.804 214.658 188.463 215.159 189.114C215.644 189.538 216.024 190.083 216.298 190.75C216.224 193.038 216.325 194.516 216.598 195.183C216.856 195.622 217.001 196.069 217.032 196.524C217.036 199.949 217.221 202.677 217.587 204.708C217.938 206.511 217.947 208.338 217.616 210.187C219.381 216.006 220.487 222.211 220.934 228.804C221.366 235.17 222.237 241.277 223.548 247.127C224.234 250.506 224.29 253.014 223.715 254.652C223.353 256.047 223.787 257.388 225.016 258.675C224.881 260.054 224.739 261.32 224.588 262.472C224.666 263.609 224.174 264.784 223.115 265.998C222.009 266.53 221.13 267.046 220.479 267.547C219.813 267.821 218.676 267.898 217.069 267.778C215.932 267.855 215 267.576 214.271 266.94C213.543 266.305 212.611 266.025 211.474 266.102C210.565 266.164 209.671 266.453 208.792 266.969C207.914 267.486 207.149 267.994 206.498 268.495C205.619 269.012 204.764 269.869 203.931 271.068C203.311 272.023 202.448 272.767 201.342 273.299C199.508 273.195 197.697 273.432 195.909 274.01C194.333 274.345 192.636 274.574 190.817 274.698C189.453 274.79 187.854 274.785 186.02 274.681C184.413 274.561 182.708 274.677 180.904 275.028C179.783 275.332 178.662 275.636 177.541 275.941C176.419 276.245 175.298 276.55 174.177 276.854C172.146 277.22 169.986 277.367 167.697 277.294C165.651 277.433 163.727 277.677 161.923 278.028C159.877 278.167 157.839 278.419 155.808 278.785C153.778 279.152 151.755 279.631 149.739 280.225C147.042 280.865 144.208 281.171 141.237 281.144C138.494 281.102 135.758 281.173 133.03 281.358C131.666 281.451 130.529 281.528 129.62 281.59C128.938 281.636 128.013 281.47 126.845 281.093C123.327 279.733 121.189 278.507 120.429 277.417C119.898 276.311 119.26 275.326 118.516 274.463C117.984 273.357 117.127 272.502 115.944 271.897C114.973 271.049 113.578 270.687 111.759 270.811C110.272 269.084 109.05 267.911 108.095 267.291C106.819 265.322 106.097 263.087 105.927 260.586C105.757 258.085 105.474 255.592 105.077 253.107C104.861 249.924 104.426 246.871 103.771 243.946C103.327 240.779 102.884 237.611 102.441 234.444C102.106 232.868 101.998 231.277 102.117 229.67C102.236 228.063 102.242 226.464 102.134 224.872C101.768 222.842 101.516 220.803 101.377 218.757C101.223 216.484 101.076 214.324 100.937 212.278C101.088 211.126 101.124 209.981 101.047 208.845C101.182 207.465 101.211 206.207 101.134 205.07C100.717 198.932 100.081 192.923 99.2256 187.043C98.37 181.163 97.628 175.275 96.9997 169.38C96.7684 165.97 96.6353 162.324 96.6005 158.444C96.7776 154.321 97.3497 150.971 98.3168 148.393C98.6944 147.225 99.0797 146.171 99.4727 145.231C99.8657 144.291 100.251 143.237 100.629 142.07C101.187 140.205 101.609 138.006 101.894 135.475C102.164 132.716 101.669 130.465 100.408 128.724C99.8612 127.391 99.2235 126.406 98.4952 125.77C97.7669 125.135 97.1523 124.491 96.6513 123.84C95.1176 121.432 94.0155 118.652 93.3449 115.5C92.6589 112.12 92.3217 108.832 92.3331 105.633C92.4639 100.828 92.3309 97.1832 91.9339 94.6978C91.7797 92.4244 91.6178 90.0373 91.4481 87.5366C91.5059 85.0204 90.791 82.8992 89.3036 81.173C87.454 80.8417 85.5216 80.9727 83.5064 81.5662C81.7185 82.1443 79.8015 82.5027 77.7554 82.6415C77.3007 82.6723 76.7246 82.5972 76.0272 82.4161C75.3297 82.235 74.64 82.1676 73.958 82.2139C73.276 82.2601 72.6016 82.4201 71.935 82.6937C71.2684 82.9673 70.5941 83.1272 69.9121 83.1735C68.7908 83.4779 67.8814 83.5396 67.184 83.3585C66.4865 83.1775 65.6908 83.2314 64.7969 83.5205C64.1149 83.5667 63.3269 83.7344 62.4329 84.0234C61.7663 84.297 60.9783 84.4646 60.069 84.5263C58.7203 84.8462 57.2503 85.0601 55.6589 85.1681C54.2795 85.0332 52.8017 85.1335 51.2258 85.4688C50.089 85.5459 48.8541 85.858 47.5209 86.4052C46.3996 86.7097 45.2706 86.9005 44.1339 86.9776C40.9048 86.5114 38.7296 86.4306 37.6084 86.735C36.699 86.7967 35.6682 86.7524 34.5161 86.6022C32.8939 86.2555 31.5067 86.007 30.3546 85.8567C29.2024 85.7065 27.9366 85.564 26.5571 85.4292C24.3877 83.7492 23.2933 81.0828 23.2739 77.4299C23.2391 73.5497 23.0155 70.2532 22.6031 67.5405C22.5414 66.6311 22.3737 65.8432 22.1001 65.1766C22.0539 64.4945 21.8862 63.7065 21.5972 62.8126C21.1848 60.0999 20.7878 57.6146 20.4063 55.3566C20.2521 53.0831 20.4466 50.9003 20.9898 48.8079C21.7141 46.0181 22.477 43.7967 23.2784 42.1436C24.2918 40.2478 25.7829 38.6621 27.7519 37.3866C28.8886 37.3095 29.9039 37.1264 30.7979 36.8374C31.6764 36.321 32.684 36.0243 33.8207 35.9472C37.9437 36.1243 40.7855 35.9315 42.3461 35.3689C43.9066 34.8063 45.5134 34.9257 47.1665 35.7271C51.6363 34.282 56.1677 33.7462 60.7608 34.1198C62.1248 34.0273 63.5043 34.1621 64.8992 34.5242C66.2787 34.6591 67.7564 34.5588 69.3324 34.2235C72.7271 33.7649 76.3569 33.4045 80.2217 33.1423C84.3138 32.8647 88.1632 32.3752 91.7699 31.6738C93.3458 31.3385 94.8236 31.2383 96.203 31.3731C97.8098 31.4925 99.2953 31.5059 100.659 31.4134C102.69 31.0473 104.85 30.9008 107.139 30.9739C109.427 31.047 111.52 31.5903 113.416 32.6036C114.521 32.0718 115.545 32.0024 116.485 32.3954C117.425 32.7884 118.471 33.0601 119.623 33.2103C122.351 33.0252 123.95 33.031 124.421 33.2275C125.118 33.4085 125.694 33.4837 126.149 33.4528C130.21 32.7206 133.256 32.1714 135.287 31.8052C137.317 31.4391 139.204 30.626 140.945 29.3659C143.431 28.9689 146.037 28.6779 148.765 28.4929C151.493 28.3078 153.842 27.5776 155.811 26.302C158.281 25.6777 160.888 25.3867 163.631 25.429C166.359 25.244 169.095 25.1726 171.839 25.2149C173.673 25.3188 175.37 25.0895 176.931 24.5269C178.491 23.9643 180.181 23.6213 182 23.4979C183.136 23.4208 184.053 23.4728 184.751 23.6538C185.448 23.8349 186.252 23.8946 187.161 23.8329C189.843 22.9659 191.768 22.7211 192.935 23.0987C194.315 23.2335 195.671 23.0273 197.004 22.4801C197.49 22.9039 197.975 23.3278 198.461 23.7516C198.946 24.1755 199.432 24.5993 199.917 25.0231C201.085 25.4007 202.131 25.6723 203.056 25.838C203.965 25.7763 204.996 25.8206 206.148 25.9708C207.057 25.9092 207.982 26.0748 208.922 26.4678C209.863 26.8608 211.007 26.8974 212.356 26.5775C214.537 25.0592 215.862 24.3984 216.332 24.5949C216.787 24.564 217.234 24.4195 217.673 24.1613C218.324 23.6604 218.854 23.0535 219.263 22.3406C219.656 21.4004 220.291 20.6721 221.17 20.1557C221.609 19.8975 222.511 19.7222 223.875 19.6297C225.223 19.3098 226.239 19.1267 226.921 19.0805C228.058 19.0034 229.088 19.0476 230.013 19.2133C231.15 19.1362 232.286 19.0591 233.423 18.982C234.333 18.9203 235.121 18.7527 235.787 18.479C236.666 17.9627 237.552 17.56 238.446 17.271C239.583 17.1938 240.5 17.2458 241.197 17.4269C242.122 17.5926 243.039 17.6446 243.948 17.5829C246.661 17.1705 249.48 16.6367 252.404 15.9815C255.329 15.3264 257.99 15.8311 260.386 17.4956C261.265 16.9792 261.947 16.933 262.432 17.3568C262.918 17.7807 263.517 18.1968 264.23 18.6052C266.338 19.3758 267.665 20.4277 268.212 21.7609C268.744 22.8668 269.39 23.9649 270.149 25.0554C272.018 29.0396 273.213 33.1837 273.733 37.4878C274.28 38.821 274.623 40.5107 274.762 42.5567C274.885 44.3755 274.872 45.8609 274.722 47.0131ZM59.7795 70.1575C59.9605 69.4601 60.028 68.7703 59.9817 68.0883C60.1628 67.3909 60.2148 66.4738 60.1377 65.3371C58.9547 64.7321 57.8025 64.5819 56.6813 64.8864C55.7719 64.948 54.7643 65.2448 53.6584 65.7766C52.5371 66.081 51.4158 66.3855 50.2945 66.6899C49.1732 66.9944 48.1425 66.9501 47.2023 66.5571C46.474 65.9213 45.8362 64.9368 45.289 63.6036C44.7418 62.2704 44.0887 61.0586 43.3295 59.9681C42.7823 58.6349 42.0309 57.6581 41.0753 57.0378C40.347 56.402 39.3239 56.4714 38.0061 57.246C36.9003 57.7778 36.2722 58.6197 36.122 59.7719C35.9717 60.924 35.9429 62.1821 36.0354 63.5461C36.1279 64.9102 36.2282 66.3879 36.3361 67.9793C36.4286 69.3434 36.3921 70.4878 36.2264 71.4126C37.8487 71.7593 39.2667 72.4625 40.4805 73.5221C41.6789 74.3544 43.0892 74.9439 44.7115 75.2906C47.2431 75.5756 49.713 74.9513 52.1212 73.4176C54.514 71.6566 57.0668 70.5699 59.7795 70.1575ZM84.8294 65.7177C85.2224 64.7775 85.2667 63.7467 84.9622 62.6254C84.8697 61.2614 84.361 60.4965 83.4362 60.3309C81.8757 60.8935 80.1032 61.6989 78.1188 62.747C76.119 63.5679 75.3099 65.1073 75.6914 67.3653C77.1017 67.9548 78.7086 68.0742 80.5119 67.7234C82.2998 67.1454 83.7389 66.4768 84.8294 65.7177ZM156.837 263.642C157.002 262.717 157.176 261.906 157.357 261.209C157.538 260.511 157.711 259.7 157.877 258.775C157.118 257.685 156.154 256.951 154.987 256.573C153.819 256.196 152.523 255.599 151.097 254.782C149.247 254.45 147.671 254.786 146.369 255.788C145.066 256.789 143.733 257.337 142.369 257.429C140.308 257.341 138.549 256.661 137.092 255.389C135.847 253.875 133.99 253.43 131.52 254.054C130.187 254.601 129.226 255.58 128.636 256.99C128.274 258.385 128.602 259.848 129.619 261.377C130.363 262.24 131.326 262.974 132.509 263.579C133.919 264.169 135.224 264.88 136.422 265.712C137.135 266.12 137.628 266.658 137.902 267.325C138.387 267.748 138.979 268.051 139.676 268.232C140.616 268.625 141.533 268.677 142.427 268.388C143.549 268.083 144.337 267.916 144.791 267.885C146.548 266.852 148.564 266.259 150.837 266.104C153.095 265.723 155.095 264.902 156.837 263.642ZM197.067 174.925C195.626 173.881 194.513 174.299 193.727 176.179C193.152 177.817 193.154 179.53 193.733 181.318C195.659 182.786 196.827 183.163 197.235 182.45C197.871 181.722 198.272 180.896 198.437 179.971C198.603 179.046 198.541 178.137 198.252 177.243C197.948 176.121 197.553 175.349 197.067 174.925ZM203.635 231.348C203.916 225.391 203.19 219.731 201.456 214.367C199.933 208.76 198.768 203.358 197.958 198.16C197.23 197.524 196.274 196.904 195.091 196.299C194.136 195.679 193.203 195.399 192.294 195.461C190.475 195.584 189.415 196.798 189.115 199.103C189.042 201.391 189.302 203.543 189.896 205.559C190.262 207.589 190.514 209.628 190.653 211.674C191.019 213.704 191.499 215.727 192.092 217.743C193.264 221.546 193.813 224.592 193.74 226.881C193.651 228.942 193.896 230.867 194.474 232.655C194.779 233.776 195.447 235.215 196.48 236.972C197.74 238.714 198.825 239.554 199.734 239.492C201.098 239.4 202.052 238.307 202.595 236.215C203.138 234.122 203.485 232.5 203.635 231.348ZM253.596 43.6499C255.642 43.5111 257.066 42.6152 257.867 40.9621C258.653 39.0817 258.871 37.2398 258.52 35.4365C257.927 33.4212 257.622 32.2999 257.607 32.0726C257.819 31.8298 257.796 31.4888 257.537 31.0496C257.233 29.9283 256.376 29.0729 254.965 28.4834C253.782 27.8785 252.403 27.7436 250.827 28.0789C249.705 28.3834 248.357 28.7032 246.781 29.0385C245.432 29.3584 244.538 29.6474 244.099 29.9056C242.357 31.1657 241.776 32.6897 242.354 34.4776C243.159 36.2501 244.169 37.6661 245.382 38.7257C247.868 38.3287 249.4 39.0242 249.978 40.8121C250.556 42.6 251.762 43.5459 253.596 43.6499ZM283.721 43.3194C284.071 45.1227 284.12 47.5175 283.865 50.5038C283.596 53.2627 283.789 56.1045 284.444 59.0291C285.006 60.5897 285.365 62.5067 285.519 64.7801C285.885 66.8107 285.538 68.433 284.479 69.6468C283.828 70.1477 283.07 70.7701 282.207 71.5138C281.572 72.2421 280.822 72.9781 279.959 73.7218C279.308 74.2227 278.558 74.9587 277.711 75.9298C276.848 76.6735 275.961 77.0762 275.052 77.1379C273.915 77.215 272.642 76.9588 271.232 76.3693C269.821 75.7798 268.555 75.6373 267.434 75.9417C266.767 76.2153 266.109 76.6026 265.457 77.1035C264.806 77.6045 264.246 77.7567 263.775 77.5602C262.639 77.6373 261.797 77.0093 261.25 75.676C260.687 74.1155 260.594 72.7514 260.972 71.5839C261.866 71.2949 262.517 70.7939 262.926 70.081C263.561 69.3528 264.326 68.8441 265.22 68.5551C266.341 68.2506 267.259 68.3026 267.971 68.711C268.896 68.8767 269.919 68.8073 271.041 68.5028C271.934 68.2138 272.715 67.9325 273.381 67.6589C274.26 67.1425 274.911 66.6416 275.335 66.1561C276.849 64.9114 278.105 63.2275 279.103 61.1043C280.328 58.9657 280.864 56.7597 280.71 54.4863C280.586 52.6675 280.236 50.8642 279.658 49.0763C279.064 47.0611 278.683 44.8031 278.513 42.3023C278.937 41.8168 279.239 41.2253 279.42 40.5278C279.601 39.8304 279.904 39.2389 280.328 38.7534C281.449 38.4489 282.276 38.8496 282.807 39.9555C283.339 41.0614 283.644 42.1827 283.721 43.3194ZM227.243 139.99C226.865 141.158 225.896 142.023 224.336 142.585C222.76 142.921 221.592 142.543 220.833 141.453C220.39 138.285 219.954 135.232 219.526 132.292C219.326 129.336 218.792 126.518 217.925 123.836C215.817 123.065 214.239 121.688 213.191 119.703C212.143 117.719 211.428 115.598 211.047 113.34C210.65 110.854 210.594 108.346 210.879 105.814C211.391 103.267 212.162 101.159 213.191 99.4909C213.295 97.6568 213.535 96.1559 213.913 94.9883C214.275 93.5934 214.493 91.7516 214.566 89.4627C214.473 88.0987 214.388 86.8483 214.311 85.7116C214.219 84.3475 214.589 83.0663 215.421 81.8679C217.71 81.9411 219.143 82.8716 219.721 84.6595C220.527 86.4319 220.908 88.6899 220.866 91.4335C220.685 92.1309 220.504 92.8284 220.323 93.5258C220.126 93.9959 220.051 94.572 220.097 95.254C219.993 97.0882 220.117 98.9069 220.468 100.71C221.03 102.271 221.244 103.741 221.109 105.12C223.055 110.241 223.955 115.09 223.809 119.668C223.89 124.23 224.426 128.762 225.416 133.262C225.721 134.384 226.025 135.505 226.33 136.626C226.861 137.732 227.166 138.853 227.243 139.99ZM226.787 158.521C225.423 158.613 224.354 158 223.579 156.683C223.032 155.349 222.818 153.879 222.937 152.273C223.057 150.666 223.54 149.377 224.388 148.406C225.236 147.435 226.501 147.577 228.185 148.833C229.399 149.893 229.864 151.689 229.579 154.22C229.521 156.736 228.59 158.17 226.787 158.521ZM117.418 288.584C118.844 289.401 120.345 289.641 121.921 289.306C123.724 288.955 125.256 289.651 126.516 291.392C122.578 293.943 119.23 295.084 116.471 294.814C113.939 294.529 111.635 294.229 109.558 293.913C108.39 293.535 106.965 292.719 105.281 291.462C103.824 290.191 102.83 289.002 102.298 287.896C100.765 285.488 99.6779 282.935 99.0381 280.238C98.6103 277.298 97.4176 274.867 95.4601 272.944C95.8531 272.004 95.7914 271.094 95.275 270.216C94.986 269.322 95.7586 268.927 97.5927 269.031C98.6255 270.788 99.9684 272.067 101.621 272.869C103.275 273.67 104.088 275.556 104.061 278.527C105.228 278.905 106.282 279.29 107.222 279.683C108.375 279.833 109.307 280.113 110.02 280.521C111.218 281.353 111.97 282.33 112.274 283.451C112.806 284.557 113.557 285.534 114.528 286.382L117.418 288.584ZM143.862 289.531C145.877 288.937 147.551 288.367 148.884 287.82C150.445 287.257 152.15 287.141 153.999 287.473C155.456 288.744 155.647 289.873 154.572 290.86C153.739 292.058 152.316 292.954 150.301 293.547C148.513 294.126 146.474 294.378 144.185 294.305C141.912 294.459 140.297 294.226 139.342 293.606C138.236 294.137 137.107 294.328 135.955 294.178C134.803 294.028 133.643 293.764 132.475 293.386C132.14 291.81 132.541 290.984 133.677 290.907C135.041 290.814 136.284 290.616 137.405 290.311C138.542 290.234 139.679 290.157 140.816 290.08C141.952 290.003 142.968 289.82 143.862 289.531Z" fill="#53BBC1"/>
<path d="M257.681 220.957C256.756 220.293 256.739 219.312 257.629 218.013C258.536 216.52 259.199 215.595 259.621 215.237C260.042 214.88 260.545 214.725 261.129 214.773C261.729 214.627 262.337 214.383 262.953 214.041C263.974 213.537 265.011 212.838 266.064 211.945C267.117 211.052 268.155 210.353 269.176 209.849L273.7 208.457C275.937 207.465 278.263 206.578 280.679 205.797C283.305 204.836 285.713 204.152 287.902 203.744C293.382 201.451 299.471 200.089 306.169 199.659C306.964 199.528 307.742 199.592 308.505 199.851C309.284 199.915 310.07 199.882 310.865 199.751C314.206 199.633 317.369 199.305 320.352 198.766C323.547 198.049 326.523 197.607 329.28 197.442C330.674 197.164 331.932 197.366 333.052 198.046C334.382 198.547 334.91 199.276 334.636 200.233C333.729 201.727 332.205 202.385 330.064 202.21C328.118 202.05 326.082 201.784 323.956 201.414C322.562 201.691 320.965 202.05 319.165 202.49C317.575 202.752 315.978 203.11 314.373 203.566C311.195 204.089 308.715 205.649 306.934 208.247C305.102 209.076 302.613 209.558 299.466 209.691C296.32 209.825 294.008 209.341 292.531 208.24C290.747 208.485 289.295 208.268 288.175 207.588C283.764 208.793 279.719 210.323 276.04 212.176C272.36 214.03 268.68 215.883 265.001 217.737C264.19 218.062 262.95 218.842 261.281 220.077C259.612 221.312 258.412 221.605 257.681 220.957ZM442.059 409.827C443.147 410.896 443.92 412.233 444.376 413.839C445.026 415.46 445.58 417.073 446.036 418.678C445.828 421.209 445.06 423.399 443.732 425.25C442.405 427.101 441.174 428.959 440.041 430.826C437.188 432.159 434.513 433.704 432.018 435.458C429.717 437.229 427.221 438.984 424.53 440.722C423.104 441.389 421.572 442.145 419.935 442.991C418.314 443.641 416.692 444.292 415.071 444.943C413.661 445.415 412.177 445.587 410.619 445.459C409.241 445.542 407.757 445.714 406.168 445.975C405.163 446.285 404.06 446.586 402.86 446.88C401.855 447.189 400.752 447.49 399.552 447.784C398.547 448.093 397.558 448.208 396.584 448.128C395.79 448.259 394.89 448.479 393.885 448.788C391.89 449.212 389.604 449.612 387.025 449.988C384.431 450.559 381.941 451.041 379.558 451.433C378.763 451.563 378.066 451.702 377.466 451.849C376.866 451.996 376.266 452.142 375.666 452.289C373.135 452.081 371.173 452.116 369.778 452.393C368.578 452.687 367.281 452.972 365.886 453.25C361.913 453.903 357.883 454.062 353.795 453.726C353.032 453.468 352.262 453.306 351.483 453.243C350.899 453.195 350.323 453.049 349.755 452.807C348.619 452.321 347.597 451.65 346.687 450.791C345.957 450.143 344.821 449.658 343.279 449.335C340.57 448.917 337.432 448.953 333.864 449.444C330.491 449.951 327.888 450.619 326.056 451.448C325.441 451.79 324.914 452.236 324.477 452.788C324.039 453.34 323.513 453.787 322.897 454.128C319.798 453.678 317.56 453.494 316.181 453.577C314.981 453.87 313.911 453.782 312.969 453.313C312.385 453.265 311.809 453.12 311.241 452.877C310.673 452.635 310.097 452.489 309.513 452.441C308.929 452.393 308.345 452.345 307.762 452.297C307.356 452.46 306.87 452.42 306.302 452.177C303.819 451.386 302.188 450.958 301.41 450.894C300.81 451.041 300.121 451.082 299.342 451.018C296.649 450.405 294.069 449.605 291.602 448.619C289.33 447.648 287.124 447.075 284.982 446.899C284.089 445.846 282.961 445.263 281.598 445.151C280.415 445.25 279.157 445.049 277.827 444.548C276.869 444.273 275.741 443.691 274.443 442.8C273.323 442.12 272.195 441.538 271.059 441.052C268.771 440.277 267.351 439.67 266.799 439.233C266.442 438.811 265.979 438.48 265.411 438.237C263.934 437.136 262.148 436.205 260.055 435.445C257.946 434.88 256.144 434.144 254.651 433.238C251.697 431.036 249.165 429.652 247.055 429.087C245.141 428.537 243.347 427.704 241.675 426.587C240.003 425.47 238.445 424.166 236.999 422.676C235.554 421.185 234.109 419.695 232.663 418.204C232.549 417.215 232.434 416.226 232.319 415.236C232.399 414.263 232.382 413.282 232.267 412.292C231.958 411.287 231.656 410.185 231.363 408.985C231.085 407.59 230.679 406.577 230.143 405.945C229.055 404.876 227.545 404.164 225.615 403.809C223.895 403.276 222.92 402.02 222.691 400.042C222.755 399.263 222.924 398.395 223.199 397.438C223.489 396.286 223.682 395.126 223.778 393.958C224.069 392.806 224.254 391.743 224.334 390.77C224.609 389.813 224.575 389.026 224.234 388.41C223.893 387.794 223.146 387.341 221.994 387.05C221.037 386.776 220.177 386.509 219.414 386.251C217.337 385.296 215.365 384.252 213.498 383.119C211.648 381.791 210.315 380.114 209.502 378.088C208.819 376.856 208.445 375.453 208.378 373.88C208.311 372.307 208.155 370.628 207.91 368.844C207.648 367.255 207.281 365.755 206.809 364.345C206.532 362.95 206.262 361.458 206.001 359.869C205.836 357.112 205.751 354.557 205.749 352.205C205.956 349.675 205.978 347.031 205.812 344.274C205.892 343.301 205.875 342.319 205.76 341.33C205.661 340.146 205.562 338.962 205.464 337.778C205.346 334.437 205.423 331.112 205.695 327.803C206.177 324.315 206.652 320.924 207.118 317.631C207.166 317.047 207.133 316.261 207.018 315.271C207.098 314.298 207.267 313.43 207.526 312.667C209.128 309.86 209.896 307.669 209.829 306.096C209.957 304.538 210.166 303.184 210.457 302.032C211.31 296.419 212.886 291.551 215.184 287.428C217.498 283.111 219.739 278.494 221.907 273.577C222.928 273.073 224.062 272.382 225.31 271.505C226.753 270.643 227.822 269.555 228.518 268.241C230.072 266.017 231.075 263.355 231.525 260.257C232.17 257.174 233.367 254.529 235.117 252.321C235.764 251.59 236.396 251.054 237.012 250.713C237.839 250.193 238.463 249.754 238.884 249.397C239.823 247.514 240.616 246.208 241.264 245.477C242.56 244.016 243.434 242.912 243.887 242.165C244.925 241.466 245.678 240.646 246.147 239.705C246.811 238.78 247.67 237.87 248.723 236.977C250.424 235.353 252.109 233.924 253.778 232.689C255.642 231.47 257.506 230.251 259.37 229.033C260.423 228.139 261.468 227.343 262.505 226.645C263.737 225.962 265.066 225.287 266.493 224.62C268.13 223.775 269.67 222.922 271.113 222.06C272.75 221.215 274.679 220.393 276.9 219.596C281.342 218.001 286.182 216.341 291.419 214.615C293.528 215.181 295.727 215.851 298.015 216.627C300.513 217.224 302.849 217.416 305.022 217.202C306.612 216.941 307.836 216.356 308.694 215.446C309.763 214.358 310.841 213.173 311.926 211.89C315.541 210.815 319.247 209.846 323.041 208.982C326.835 208.117 330.663 208.04 334.524 208.749C337.719 208.031 341.06 207.914 344.548 208.396C348.23 208.895 351.929 209.198 355.643 209.307C356.616 209.387 357.971 209.597 359.707 209.935C361.638 210.29 363.366 210.726 364.891 211.243C366.221 211.744 367.471 212.043 368.639 212.138C369.807 212.234 370.967 212.428 372.119 212.718C372.881 212.977 373.538 213.325 374.09 213.762C374.658 214.005 375.332 214.158 376.11 214.222C377.262 214.512 378.333 214.6 379.322 214.486C380.506 214.387 381.585 214.378 382.558 214.457C383.531 214.537 384.481 214.909 385.406 215.573C386.526 216.253 387.759 216.746 389.106 217.053C391.799 217.666 393.332 218.086 393.706 218.313C394.842 218.798 395.896 219.08 396.87 219.16C398.038 219.256 399.1 219.441 400.057 219.716C402.119 220.865 403.247 221.448 403.441 221.464C403.847 221.301 404.236 221.333 404.609 221.56C405.551 222.029 406.484 222.595 407.409 223.259C408.529 223.939 409.56 224.514 410.501 224.983C411.069 225.226 411.645 225.371 412.229 225.419C412.829 225.272 413.413 225.32 413.981 225.563C415.848 226.696 416.976 227.279 417.365 227.31C417.949 227.358 418.42 227.593 418.777 228.014C419.702 228.678 420.312 229.61 420.605 230.81C421.109 231.831 421.71 232.861 422.409 233.898C422.735 234.708 423.173 235.332 423.725 235.77C424.472 236.223 425.097 236.96 425.601 237.981C426.38 238.045 426.948 238.288 427.305 238.709C427.857 239.147 428.612 239.502 429.569 239.777C430.526 240.052 431.402 240.124 432.197 239.993C432.992 239.862 433.77 239.926 434.533 240.185C436.221 241.107 437.901 242.127 439.573 243.244C440.319 243.697 441.147 244.353 442.057 245.212C442.982 245.876 443.899 246.637 444.809 247.496C445.913 248.37 447.009 249.342 448.097 250.411C449.395 251.302 450.483 252.371 451.361 253.619C452.254 254.672 453.229 255.928 454.285 257.386C455.357 258.65 456.421 260.012 457.477 261.47C458.68 263.529 458.78 265.888 457.777 268.55C456.97 271.227 456.194 273.515 455.45 275.413C454.234 275.901 453.092 276.69 452.022 277.778C451.164 278.687 450.111 279.58 448.863 280.458C448.441 280.815 447.736 281.051 446.747 281.166C445.952 281.296 445.247 281.532 444.631 281.874C443.82 282.199 443.083 282.824 442.419 283.75C441.966 284.496 441.334 285.032 440.524 285.358C438.382 285.182 437.004 285.265 436.388 285.606C435.788 285.753 435.293 285.81 434.904 285.778C434.515 285.746 433.939 285.601 433.176 285.342C432.413 285.084 431.845 284.841 431.472 284.614C429.411 283.465 427.373 282.024 425.36 280.291C423.541 278.574 421.188 277.401 418.3 276.772C415.655 275.575 413.431 274.02 411.628 272.108C409.842 270.002 407.626 268.35 404.98 267.153C403.975 267.463 403.196 267.399 402.644 266.961C402.108 266.329 401.362 265.876 400.404 265.602C399.852 265.164 399.179 265.011 398.384 265.142C397.606 265.078 396.933 264.924 396.365 264.682C395.229 264.197 394.101 263.614 392.981 262.934C392.055 262.27 391.025 261.696 389.889 261.21C388.558 260.709 387.211 260.403 385.849 260.291C384.502 259.984 383.156 259.678 381.809 259.371C380.673 258.886 379.432 258.49 378.085 258.183C376.949 257.698 375.797 257.408 374.629 257.312C373.072 257.184 371.701 257.169 370.517 257.268C369.35 257.172 368.19 256.979 367.038 256.688C366.291 256.235 365.536 255.879 364.774 255.62C364.206 255.378 363.435 255.216 362.462 255.137C359.737 254.913 356.817 254.673 353.702 254.417C350.782 254.177 348.049 254.051 345.503 254.038C343.929 254.104 342.235 254.455 340.419 255.09C338.798 255.741 337.193 256.197 335.603 256.458C335.198 256.621 334.703 256.678 334.119 256.63C333.551 256.388 332.967 256.34 332.368 256.486C329.53 257.625 327.415 258.333 326.02 258.611C324.82 258.904 323.588 259.587 322.324 260.659C321.156 260.563 320.159 260.775 319.333 261.295C318.522 261.62 317.614 261.938 316.609 262.247C315.249 264.487 313.897 266.63 312.553 268.675C311.226 270.526 309.971 272.676 308.79 275.127C308.566 277.852 308.05 280.553 307.243 283.231C306.645 285.729 306.032 288.422 305.403 291.31C304.886 292.836 304.377 294.264 303.876 295.594C303.39 296.73 303.092 297.979 302.98 299.342C302.9 300.315 302.812 301.386 302.716 302.554C302.831 303.543 302.848 304.524 302.768 305.498C302.64 307.055 302.326 308.499 301.825 309.83C301.534 310.981 301.422 312.344 301.489 313.917C301.068 314.275 300.638 314.729 300.201 315.281C299.764 315.833 299.237 316.28 298.621 316.621C296.24 319.365 295.7 322.359 297.002 325.601C298.303 328.843 299.434 331.778 300.394 334.404C299.96 337.308 299.589 339.433 299.283 340.78C298.992 341.932 298.896 343.1 298.995 344.284C298.867 345.841 298.626 347.585 298.271 349.516C298.127 351.267 298.073 353.125 298.108 355.087C298.222 356.077 298.337 357.066 298.452 358.055C298.567 359.044 298.681 360.034 298.796 361.023C298.62 363.164 298.339 365.395 297.953 367.715C297.566 370.035 297.472 372.378 297.669 374.746C298.128 378.703 298.375 381.663 298.41 383.626C298.444 385.588 299.176 387.412 300.606 389.097C300.931 389.908 301.459 390.637 302.19 391.285C302.937 391.738 303.586 392.184 304.138 392.621C305.778 394.127 307.531 395.447 309.398 396.58C311.264 397.713 313.107 399.139 314.926 400.856C318.254 403.285 321.443 405.016 324.494 406.051C327.56 406.891 330.213 407.99 332.453 409.35C335.715 410.206 338.684 411.038 341.361 411.845C344.249 412.475 347.339 413.022 350.633 413.489C352.774 413.665 354.818 413.832 356.764 413.992C358.922 413.973 361.063 414.149 363.188 414.52C370.521 415.906 377.487 415.792 384.087 414.179C390.897 412.386 397.358 410.075 403.469 407.246C405.107 406.4 406.76 405.36 408.429 404.125C410.293 402.907 412.157 401.688 414.02 400.469C415.674 399.429 417.627 398.316 419.88 397.129C422.149 395.748 424.346 395.242 426.471 395.613C427.445 395.693 428.297 396.057 429.027 396.705C429.953 397.368 430.91 397.643 431.899 397.528C433.182 398.614 434.059 399.861 434.531 401.272C435.214 402.504 436.075 403.946 437.115 405.6C437.62 406.621 438.342 407.366 439.284 407.835C440.241 408.11 441.166 408.774 442.059 409.827ZM218.139 337.349C217.411 339.053 217.089 340.595 217.171 341.973C217.465 343.173 218.074 344.105 218.999 344.769C220.557 344.897 221.781 344.311 222.671 343.013C223.562 341.714 223.779 340.262 223.323 338.657C222.56 338.398 221.805 338.042 221.059 337.589C220.523 336.957 219.857 336.707 219.063 336.837L218.139 337.349ZM225.701 374.127C226.461 372.034 226.402 370.363 225.525 369.115C224.858 367.689 224.118 365.962 223.304 363.936C222.995 362.93 222.694 361.828 222.4 360.628C222.317 359.249 222.024 358.049 221.52 357.028C221.211 356.023 220.691 355.196 219.96 354.548C219.424 353.916 218.467 353.642 217.088 353.725C216.845 354.293 216.7 354.869 216.652 355.453C216.604 356.037 216.459 356.612 216.216 357.18C216.966 359.986 217.318 362.856 217.273 365.792C217.438 368.549 218.512 370.989 220.493 373.111C221.272 373.175 221.84 373.418 222.197 373.839C222.57 374.066 223.041 374.3 223.609 374.543L225.701 374.127ZM259.615 251.099C261.546 251.454 263.403 251.508 265.187 251.263C267.181 250.839 268.08 249.443 267.882 247.075C266.453 245.39 265.657 244.345 265.494 243.939C263.71 244.185 261.984 244.925 260.315 246.16C258.856 247.216 258.623 248.862 259.615 251.099ZM294.58 233.394C295.423 232.679 295.803 231.633 295.72 230.254C295.848 228.697 295.652 227.505 295.132 226.678C293.865 225.399 291.934 225.044 289.34 225.615C287.945 225.892 286.527 226.462 285.084 227.323C283.852 228.006 282.628 228.591 281.412 229.079C277.749 230.738 274.969 232.371 273.073 233.979C272.815 234.742 272.459 235.497 272.005 236.243C271.747 237.006 271.772 237.89 272.082 238.895C272.844 239.154 273.486 239.696 274.006 240.523C274.526 241.35 275.272 241.803 276.246 241.883C277.219 241.963 278.037 241.54 278.701 240.615C279.381 239.495 280.135 238.675 280.961 238.155C282.857 236.547 285.086 235.652 287.649 235.47C290.422 235.11 292.732 234.418 294.58 233.394ZM305.943 417.167C307.533 416.906 308.846 416.426 309.883 415.727C311.131 414.85 312.087 413.949 312.751 413.023C311.873 411.775 310.656 411.087 309.099 410.96C307.736 410.848 306.26 410.922 304.671 411.184C303.098 411.251 301.419 411.407 299.635 411.652C298.062 411.719 296.618 411.404 295.304 410.708C293.989 410.013 293.096 408.959 292.623 407.549C292.362 405.96 291.785 404.638 290.891 403.585C289.011 404.999 288.373 406.808 288.976 409.013C289.579 411.218 290.537 412.669 291.852 413.365C294.124 414.335 295.52 415.234 296.04 416.06C296.77 416.708 297.525 417.064 298.304 417.128C299.261 417.403 300.429 417.498 301.808 417.416C303.381 417.349 304.759 417.266 305.943 417.167ZM318.915 420.29C319.256 420.906 319.898 421.449 320.839 421.918C321.975 422.403 323.029 422.686 324.003 422.766C325.171 422.862 326.16 422.747 326.971 422.422C327.797 421.902 328.266 420.96 328.378 419.598C327.21 419.502 326.545 419.251 326.382 418.846C326.22 418.441 325.952 418.125 325.578 417.898C324.378 418.191 323.081 418.477 321.687 418.754C320.503 418.853 319.579 419.365 318.915 420.29ZM408.491 435.584C409.286 435.453 410.299 435.046 411.531 434.364C411.659 432.806 411.657 431.63 411.527 430.836C410.585 430.367 409.612 430.287 408.607 430.596C407.796 430.921 407.067 431.449 406.419 432.18C405.966 432.927 405.804 433.697 405.935 434.492C406.276 435.108 407.128 435.472 408.491 435.584ZM420.598 427.759C423.568 429.767 426.407 429.804 429.113 427.871C432.014 425.953 433.779 423.551 434.409 420.663C433.857 420.226 433.41 419.699 433.069 419.083C432.727 418.467 432.175 418.03 431.413 417.771C430.845 417.529 430.253 417.578 429.637 417.919C429.231 418.082 428.639 418.131 427.861 418.067C427.424 418.619 426.792 419.155 425.965 419.676C425.154 420.001 424.522 420.537 424.069 421.284C423.341 422.987 422.459 424.189 421.422 424.888C420.579 425.602 420.304 426.559 420.598 427.759ZM237.699 235.19C234.939 233.003 234.078 231.561 235.115 230.862C236.363 229.985 237.514 229.099 238.567 228.206C239.879 226.55 240.632 225.73 240.826 225.746C241.021 225.762 241.321 225.689 241.726 225.526C242.764 224.827 243.493 224.299 243.914 223.942C244.546 223.406 245.357 223.081 246.346 222.966C247.53 222.867 248.593 223.052 249.534 223.522C250.491 223.796 251.117 224.533 251.41 225.733C250.845 227.843 249.525 229.596 247.45 230.993C245.587 232.212 243.739 233.236 241.907 234.065C241.502 234.228 240.788 234.562 239.767 235.066C238.957 235.391 238.267 235.432 237.699 235.19ZM474.904 267.605C474.841 268.383 474.671 269.251 474.397 270.208C474.333 270.987 474.09 271.555 473.669 271.912C470.152 274.171 467.64 276.121 466.134 277.761C464.643 279.206 463.055 280.643 461.37 282.073C460.786 282.025 459.594 282.221 457.794 282.661C456.011 282.906 455.175 282.348 455.286 280.985C455.124 280.58 455.569 279.931 456.622 279.037C457.886 277.965 458.737 277.153 459.174 276.601C460.648 275.35 461.815 274.27 462.674 273.361C463.532 272.452 464.236 271.04 464.785 269.125C465.188 266.611 465.502 265.167 465.729 264.793C465.955 264.42 466.085 264.039 466.117 263.649C466.149 263.26 466.002 262.66 465.677 261.849C465.351 261.039 465.01 260.423 464.653 260.002C463.466 257.749 462.052 255.869 460.412 254.362C458.772 252.856 457.254 251.065 455.856 248.991C455.304 248.554 454.744 248.214 454.176 247.971C453.608 247.728 453.154 247.299 452.812 246.683C453.071 245.921 453.314 245.353 453.54 244.979C453.961 244.622 454.107 244.046 453.976 243.251C455.856 241.838 457.226 241.852 458.088 243.295C459.16 244.559 460.135 245.815 461.012 247.063C461.921 247.921 462.733 248.772 463.448 249.614C464.373 250.278 465.201 250.934 465.932 251.582C466.679 252.035 467.223 252.57 467.564 253.186C467.905 253.802 468.344 254.426 468.88 255.058C471.429 257.423 473.111 259.618 473.924 261.645C474.754 263.477 475.08 265.463 474.904 267.605ZM348.827 267.245C347.966 265.802 347.965 264.626 348.823 263.717C349.682 262.808 350.8 262.312 352.179 262.229C353.768 261.967 355.228 262.087 356.559 262.589C358.084 263.106 358.993 263.964 359.287 265.164C358.737 267.079 357.174 268.224 354.595 268.6C352.211 268.992 350.289 268.541 348.827 267.245ZM326.525 273.938C326.088 274.49 325.837 275.155 325.773 275.934C325.725 276.518 325.296 276.972 324.485 277.298C323.92 279.407 323.234 281.8 322.426 284.478C321.813 287.171 321.394 289.88 321.17 292.605C321.205 294.568 321.127 296.717 320.935 299.053C320.743 301.389 320.299 303.214 319.603 304.529C318.939 305.454 318.105 306.071 317.1 306.381C316.289 306.706 315.51 306.642 314.764 306.189C314.049 305.346 313.732 304.438 313.812 303.465C314.102 302.313 314.206 301.048 314.123 299.669C314.009 298.68 313.975 297.893 314.023 297.309C314.087 296.531 314.159 295.655 314.239 294.682C314.577 292.946 314.819 291.202 314.963 289.45C315.122 287.503 315.364 285.759 315.686 284.218C316.846 277.258 319.451 271.789 323.501 267.81C325.69 267.402 328.308 266.539 331.356 265.222C334.404 263.905 337.306 263.163 340.064 262.998C341.053 262.883 341.889 263.441 342.571 264.673C343.465 265.727 343.677 266.724 343.208 267.665C342.186 268.169 341.36 268.689 340.728 269.225C340.112 269.567 339.309 269.795 338.32 269.909C337.331 270.024 336.349 270.041 335.376 269.961C334.419 269.687 333.332 269.794 332.116 270.282C331.111 270.591 329.985 271.184 328.737 272.062C327.699 272.761 326.962 273.386 326.525 273.938ZM430.906 380.985C432.4 381.892 433.593 382.872 434.486 383.925C435.574 384.994 436.565 386.055 437.458 387.109C437.914 388.714 438.5 389.938 439.214 390.78C440.124 391.639 440.612 392.855 440.679 394.428C438.359 394.041 436.663 393.216 435.591 391.952C434.713 390.705 433.633 389.538 432.351 388.453C431.183 388.357 430.128 388.074 429.187 387.605C428.44 387.152 427.58 386.885 426.607 386.805C425.018 387.067 423.688 387.741 422.619 388.829C421.745 389.933 420.618 390.527 419.239 390.61C414.944 392.804 411.167 394.65 407.908 396.146C404.65 397.642 401.278 399.325 397.793 401.194C396.788 401.504 395.791 401.716 394.802 401.83C393.812 401.945 392.807 402.255 391.786 402.759C390.78 403.068 389.865 403.483 389.038 404.003C388.211 404.523 387.117 404.727 385.754 404.615C385.186 404.372 384.529 404.024 383.782 403.571C383.052 402.923 382.71 402.307 382.758 401.723C382.838 400.75 383.591 399.93 385.018 399.263C386.444 398.597 387.644 398.303 388.618 398.383C389.591 398.463 390.354 398.722 390.906 399.159C391.458 399.596 392.236 399.66 393.241 399.351C395.641 398.764 398.081 397.691 400.561 396.13C403.057 394.376 405.407 393.197 407.612 392.594C409.767 390.223 412.262 388.469 415.099 387.33C418.147 386.013 420.74 384.266 422.879 382.09C424.079 381.796 425.279 381.503 426.478 381.21C427.694 380.722 429.17 380.647 430.906 380.985ZM387.818 461.812C388.175 462.233 388.127 462.817 387.674 463.564C387.399 464.521 387.327 465.397 387.458 466.191C386.048 466.664 384.58 466.641 383.054 466.124C381.513 465.801 379.964 465.576 378.407 465.448C377.06 465.142 375.105 465.079 372.543 465.26C370.175 465.458 368.196 465.687 366.607 465.949C365.618 466.064 364.629 466.178 363.639 466.293C362.829 466.618 361.921 466.936 360.916 467.245C359.31 467.701 357.729 467.865 356.172 467.737C354.599 467.804 353.107 468.074 351.696 468.546C347.835 467.837 344.031 467.622 340.285 467.902C336.717 468.393 333.189 468.398 329.701 467.915C326.829 467.091 324.007 466.86 321.234 467.22C318.671 467.401 316.125 467.388 313.594 467.18C311.064 466.972 308.614 466.967 306.247 467.165C304.38 466.032 302.173 465.458 299.627 465.445C297.08 465.432 294.55 465.224 292.035 464.822C291.515 463.995 290.185 463.494 288.043 463.318C287.734 462.313 287.117 461.478 286.191 460.814C285.461 460.166 285.054 459.153 284.971 457.775C285.456 456.639 286.267 456.313 287.403 456.798C288.539 457.284 289.61 457.372 290.615 457.062C292.887 458.033 295.459 458.93 298.331 459.754C301.202 460.577 304.18 461.312 307.262 461.957C308.219 462.231 309.193 462.311 310.182 462.197C311.171 462.082 312.153 462.065 313.126 462.145C313.71 462.192 314.286 462.338 314.854 462.58C315.422 462.823 315.892 463.058 316.266 463.284C320.159 463.604 323.411 463.381 326.021 462.616C327.026 462.306 327.861 461.689 328.525 460.764C329.368 460.049 330.291 459.537 331.297 459.227C338.272 460.192 345.361 460.97 352.564 461.562C359.961 462.169 367.032 461.966 373.778 460.953C375.368 460.691 376.762 460.414 377.962 460.12C379.357 459.843 380.833 459.768 382.39 459.896C383.185 459.765 384.158 459.845 385.31 460.136C386.64 460.637 387.476 461.196 387.818 461.812ZM453.811 288.213C453.31 289.543 452.517 290.85 451.431 292.133C450.346 293.415 449.204 294.203 448.004 294.497C446.009 294.921 444.768 294.525 444.28 293.309C443.792 292.093 443.798 290.82 444.3 289.489C444.995 288.175 445.967 287.079 447.215 286.201C448.674 285.145 450.247 285.079 451.935 286.001L453.811 288.213Z" fill="#53BBC1"/>
</svg>
